<svg width="316.625px" height="121.39999999999999px" xmlns="http://www.w3.org/2000/svg" viewBox="91.6875 14.300000000000004 316.625 121.39999999999999" style="background: rgba(0, 0, 0, 0);" preserveAspectRatio="xMidYMid"><defs><filter id="editing-extrude-glow"><feFlood flood-color="#333333" result="flood-1"></feFlood><feMorphology operator="erode" radius="1" in="SourceAlpha" result="erode"></feMorphology><feComposite operator="in" in="flood-1" in2="erode" result="comp1"></feComposite><feConvolveMatrix order="3,3" divisor="1" in="comp1" result="convolve" kernelMatrix="0 0 0 1 1 1 0 0 0"></feConvolveMatrix><feOffset dx="-3" dy="0" in="convolve" result="extrude"></feOffset><feComposite operator="in" in="flood-1" in2="extrude" result="comp-extrude"></feComposite><feFlood flood-color="rgba(0%,0%,0%,0)" result="flood-2"></feFlood><feComposite operator="in" in="flood-2" in2="SourceAlpha" result="comp2"></feComposite><feMorphology operator="dilate" radius="1" in="comp2" result="dilate"></feMorphology><feOffset dx="-4.5" dy="0" in="dilate" result="offset"></feOffset><feGaussianBlur in="offset" stdDeviation="5.8" result="blur"></feGaussianBlur><feComponentTransfer in="blur" result="shadow"><feFuncA type="linear" slope="0.8" intercept="-0.2"></feFuncA></feComponentTransfer><feMerge><feMergeNode in="shadow"></feMergeNode><feMergeNode in="comp-extrude"></feMergeNode><feMergeNode in="SourceGraphic"></feMergeNode></feMerge></filter></defs><g filter="url(#editing-extrude-glow)"><g transform="translate(141.32497861981392, 104.79000091552734)"><path d="M26.11-42.69L26.11-42.69L26.11-42.69Q41.79-42.69 41.79-31.62L41.79-31.62L41.79-31.62Q41.79-25.54 37.89-21.89L37.89-21.89L37.89-21.89Q34.05-18.24 27.33-18.24L27.33-18.24L27.33-18.24Q24.19-18.24 21.76-20.03L21.76-20.03L21.76-20.03Q20.61-20.80 19.84-21.82L19.84-21.82L19.84-21.82Q24.51-21.82 26.98-24.67L26.98-24.67L26.98-24.67Q29.44-27.52 29.44-33.09L29.44-33.09L29.44-33.09Q29.44-38.66 23.94-38.66L23.94-38.66L22.40-38.66L22.40-38.66Q22.02-38.66 21.70-38.59L21.70-38.59L14.34 0L0.45 0L8.32-41.92L8.32-41.92Q15.17-42.56 19.14-42.62L19.14-42.62L19.14-42.62Q23.10-42.69 26.11-42.69ZM62.46-7.23L62.46-7.23L62.46-7.23Q59.14-3.78 53.06-3.78L53.06-3.78L53.06-3.78Q45.44-3.78 43.84-9.34L43.84-9.34L43.84-9.34Q43.33-11.01 43.33-12.86L43.33-12.86L43.33-12.86Q43.33-14.72 43.71-16.64L43.71-16.64L46.72-32.64L59.71-33.92L56.19-15.30L56.19-15.30Q56.06-14.46 55.87-13.57L55.87-13.57L55.87-13.57Q55.68-12.67 55.68-11.74L55.68-11.74L55.68-11.74Q55.68-10.82 56-10.21L56-10.21L56-10.21Q56.32-9.60 56.77-9.22L56.77-9.22L56.77-9.22Q57.54-8.70 58.91-8.70L58.91-8.70L58.91-8.70Q60.29-8.70 61.47-10.37L61.47-10.37L61.47-10.37Q62.66-12.03 63.23-14.91L63.23-14.91L66.75-32.64L79.36-33.92L74.56-8.77L74.56-8.77Q72.19 3.52 67.33 8.38L67.33 8.38L67.33 8.38Q64.83 10.88 61.60 11.87L61.60 11.87L61.60 11.87Q58.37 12.86 54.21 12.86L54.21 12.86L54.21 12.86Q47.49 12.86 43.65 10.75L43.65 10.75L43.65 10.75Q39.81 8.64 39.81 5.12L39.81 5.12L39.81 5.12Q39.81 2.50 41.79 0.99L41.79 0.99L41.79 0.99Q43.78-0.51 46.85-0.51L46.85-0.51L46.85-0.51Q49.54-0.51 51.58 0.64L51.58 0.64L51.58 0.64Q52.80 1.34 53.38 2.24L53.38 2.24L53.38 2.24Q51.90 3.52 51.90 5.63L51.90 5.63L51.90 5.63Q51.90 8.45 54.46 8.45L54.46 8.45L54.46 8.45Q58.69 8.45 61.12-1.28L61.12-1.28L61.12-1.28Q61.82-4.16 62.46-7.23ZM94.72 0L81.09 0L88.38-38.91L89.09-42.24L102.78-42.24L94.72 0ZM120.70-3.78L120.70-3.78L120.70-3.78Q118.98 1.28 112.32 1.28L112.32 1.28L112.32 1.28Q107.39 1.28 104-4.61L104-4.61L104-4.61Q100.54-10.50 99.90-20.10L99.90-20.10L99.90-20.10Q106.94-32.96 111.81-38.27L111.81-38.27L111.81-38.27Q116.48-43.33 121.34-43.33L121.34-43.33L121.34-43.33Q123.97-43.33 125.86-41.92L125.86-41.92L125.86-41.92Q127.74-40.51 128.19-38.27L128.19-38.27L128.19-38.27Q126.02-37.38 124.99-36.67L124.99-36.67L124.99-36.67Q122.43-34.75 118.98-30.46L118.98-30.46L113.15-23.49L113.15-23.49Q111.74-21.82 111.17-21.06L111.17-21.06L111.17-21.06Q112.13-15.68 115.01-10.37L115.01-10.37L115.01-10.37Q117.76-5.31 120.70-3.78ZM141.50-3.52L141.50-3.52L141.50-3.52Q139.52 1.28 133.18 1.28L133.18 1.28L133.18 1.28Q129.92 1.28 127.87-0.96L127.87-0.96L127.87-0.96Q126.14-2.94 126.14-4.93L126.14-4.93L126.14-4.93Q126.14-10.11 128.51-20.22L128.51-20.22L130.88-32.64L143.87-33.92L139.97-13.70L139.97-13.70Q138.88-8.96 138.88-7.30L138.88-7.30L138.88-7.30Q138.88-3.65 141.50-3.52ZM132.03-41.54L132.03-41.54L132.03-41.54Q132.03-44.03 134.11-45.38L134.11-45.38L134.11-45.38Q136.19-46.72 139.20-46.72L139.20-46.72L139.20-46.72Q142.21-46.72 144.03-45.38L144.03-45.38L144.03-45.38Q145.86-44.03 145.86-41.54L145.86-41.54L145.86-41.54Q145.86-39.04 143.84-37.76L143.84-37.76L143.84-37.76Q141.82-36.48 138.82-36.48L138.82-36.48L138.82-36.48Q135.81-36.48 133.92-37.76L133.92-37.76L133.92-37.76Q132.03-39.04 132.03-41.54ZM167.10-33.92L167.10-33.92L167.10-33.92Q169.41-33.92 171.20-33.41L171.20-33.41L171.20-33.41Q171.26-33.66 171.39-34.37L171.39-34.37L171.71-36.35L171.71-36.35Q171.97-37.63 172.35-39.74L172.35-39.74L173.38-44.80L186.11-46.08L179.01-8.96L179.01-8.96Q178.94-8.58 178.94-7.94L178.94-7.94L178.94-6.91L178.94-6.91Q178.94-5.50 179.65-4.45L179.65-4.45L179.65-4.45Q180.35-3.39 181.50-3.39L181.50-3.39L181.50-3.39Q180.22-0.38 176.32 0.90L176.32 0.90L176.32 0.90Q174.98 1.28 173.09 1.28L173.09 1.28L173.09 1.28Q171.20 1.28 169.47 0.29L169.47 0.29L169.47 0.29Q167.74-0.70 167.23-2.37L167.23-2.37L167.23-2.37Q166.21-0.70 164.16 0.29L164.16 0.29L164.16 0.29Q162.11 1.28 159.14 1.28L159.14 1.28L159.14 1.28Q156.16 1.28 153.70 0.51L153.70 0.51L153.70 0.51Q151.23-0.26 149.70-1.92L149.70-1.92L149.70-1.92Q146.88-5.18 146.88-12.61L146.88-12.61L146.88-12.61Q146.88-22.21 152.51-28.03L152.51-28.03L152.51-28.03Q158.14-33.92 167.10-33.92ZM166.66-30.08L166.66-30.08L166.66-30.08Q164.29-30.08 163.01-27.52L163.01-27.52L163.01-27.52Q161.73-24.96 160.42-18.62L160.42-18.62L160.42-18.62Q159.10-12.29 159.10-6.59L159.10-6.59L159.10-6.59Q159.10-2.69 161.41-2.69L161.41-2.69L161.41-2.69Q163.46-2.69 164.90-4.74L164.90-4.74L164.90-4.74Q166.34-6.78 166.91-10.18L166.91-10.18L170.37-28.93L170.37-28.93Q169.02-30.08 166.66-30.08ZM199.26 0.64L199.26 0.64L199.26 0.64Q196.22 0 194.66-0.29L194.66-0.29L194.66-0.29Q193.09-0.58 191.26-0.58L191.26-0.58L191.26-0.58Q189.44-0.58 187.65 0.06L187.65 0.06L187.65 0.06Q186.69-0.51 186.08-1.66L186.08-1.66L186.08-1.66Q185.47-2.82 185.47-4.61L185.47-4.61L185.47-4.61Q185.47-8.38 189.31-11.26L189.31-11.26L205.57-22.98L205.57-22.98Q201.02-24.26 196.90-24.26L196.90-24.26L196.90-24.26Q192.77-24.26 191.30-21.44L191.30-21.44L191.30-21.44Q189.12-24 189.12-28.03L189.12-28.03L189.12-28.03Q189.12-30.72 191.07-32.48L191.07-32.48L191.07-32.48Q193.02-34.24 197.12-34.24L197.12-34.24L197.12-34.24Q199.42-34.24 201.50-33.95L201.50-33.95L201.50-33.95Q203.58-33.66 205.44-33.41L205.44-33.41L208.90-32.90L208.90-32.90Q210.56-32.64 212.26-32.64L212.26-32.64L212.26-32.64Q213.95-32.64 215.23-33.34L215.23-33.34L215.23-33.34Q216.90-31.81 216.90-29.70L216.90-29.70L216.90-29.70Q216.90-26.37 212.80-22.91L212.80-22.91L196.61-10.82L196.61-10.82Q201.60-9.34 204.16-9.34L204.16-9.34L204.16-9.34Q209.54-9.34 211.84-11.90L211.84-11.90L211.84-11.90Q213.63-9.86 213.63-6.30L213.63-6.30L213.63-6.30Q213.63-2.75 211.33-0.74L211.33-0.74L211.33-0.74Q209.02 1.28 204.86 1.28L204.86 1.28L204.86 1.28Q202.30 1.28 199.26 0.64Z" fill="#ef6360"></path></g></g><style>text {
  font-size: 64px;
  font-family: Arial Black;
  dominant-baseline: central;
  text-anchor: middle;
}</style></svg>